<svg xmlns="http://www.w3.org/2000/svg" width="1280" height="680" viewBox="0 0 1280 680">
<rect width="100%" height="100%" fill="#ffffff"/>
<text x="88" y="34" font-family="Arial, sans-serif" font-size="22" font-weight="700" fill="#1f2937">SMIC 688981.SH KDJ(9,3,3)</text>
<text x="88" y="59" font-family="Arial, sans-serif" font-size="13" fill="#6b7280">Stochastic oscillator: K, D, and the more sensitive J line</text>
<text x="18" y="342" font-family="Arial, sans-serif" font-size="12" fill="#6b7280" transform="rotate(-90 18,342)">KDJ</text>
<line x1="88" x2="1244" y1="602.00" y2="602.00" stroke="#e5e7eb" stroke-width="1"/>
<text x="78" y="606.00" text-anchor="end" font-family="Arial, sans-serif" font-size="11" fill="#6b7280">-50.00</text>
<line x1="88" x2="1244" y1="472.00" y2="472.00" stroke="#e5e7eb" stroke-width="1"/>
<text x="78" y="476.00" text-anchor="end" font-family="Arial, sans-serif" font-size="11" fill="#6b7280">0.00</text>
<line x1="88" x2="1244" y1="342.00" y2="342.00" stroke="#e5e7eb" stroke-width="1"/>
<text x="78" y="346.00" text-anchor="end" font-family="Arial, sans-serif" font-size="11" fill="#6b7280">50.00</text>
<line x1="88" x2="1244" y1="212.00" y2="212.00" stroke="#e5e7eb" stroke-width="1"/>
<text x="78" y="216.00" text-anchor="end" font-family="Arial, sans-serif" font-size="11" fill="#6b7280">100.00</text>
<line x1="88" x2="1244" y1="82.00" y2="82.00" stroke="#e5e7eb" stroke-width="1"/>
<text x="78" y="86.00" text-anchor="end" font-family="Arial, sans-serif" font-size="11" fill="#6b7280">150.00</text>
<line x1="88.00" x2="88.00" y1="82" y2="602" stroke="#f3f4f6" stroke-width="1"/>
<text x="88.00" y="642" text-anchor="middle" font-family="Arial, sans-serif" font-size="11" fill="#6b7280">2025-07-04</text>
<line x1="279.85" x2="279.85" y1="82" y2="602" stroke="#f3f4f6" stroke-width="1"/>
<text x="279.85" y="642" text-anchor="middle" font-family="Arial, sans-serif" font-size="11" fill="#6b7280">2025-08-28</text>
<line x1="471.69" x2="471.69" y1="82" y2="602" stroke="#f3f4f6" stroke-width="1"/>
<text x="471.69" y="642" text-anchor="middle" font-family="Arial, sans-serif" font-size="11" fill="#6b7280">2025-11-07</text>
<line x1="668.46" x2="668.46" y1="82" y2="602" stroke="#f3f4f6" stroke-width="1"/>
<text x="668.46" y="642" text-anchor="middle" font-family="Arial, sans-serif" font-size="11" fill="#6b7280">2026-01-06</text>
<line x1="860.31" x2="860.31" y1="82" y2="602" stroke="#f3f4f6" stroke-width="1"/>
<text x="860.31" y="642" text-anchor="middle" font-family="Arial, sans-serif" font-size="11" fill="#6b7280">2026-03-10</text>
<line x1="1052.15" x2="1052.15" y1="82" y2="602" stroke="#f3f4f6" stroke-width="1"/>
<text x="1052.15" y="642" text-anchor="middle" font-family="Arial, sans-serif" font-size="11" fill="#6b7280">2026-05-08</text>
<line x1="1244.00" x2="1244.00" y1="82" y2="602" stroke="#f3f4f6" stroke-width="1"/>
<text x="1244.00" y="642" text-anchor="middle" font-family="Arial, sans-serif" font-size="11" fill="#6b7280">2026-07-03</text>
<line x1="88" x2="1244" y1="602" y2="602" stroke="#9ca3af" stroke-width="1"/>
<line x1="88" x2="88" y1="82" y2="602" stroke="#9ca3af" stroke-width="1"/>
<line x1="88" x2="1244" y1="264.00" y2="264.00" stroke="#dc2626" stroke-width="1.3" stroke-dasharray="6 5"/>
<text x="1238" y="257.00" text-anchor="end" font-family="Arial, sans-serif" font-size="11" fill="#dc2626">80 overbought</text>
<line x1="88" x2="1244" y1="420.00" y2="420.00" stroke="#059669" stroke-width="1.3" stroke-dasharray="6 5"/>
<text x="1238" y="413.00" text-anchor="end" font-family="Arial, sans-serif" font-size="11" fill="#059669">20 oversold</text>
<line x1="88" x2="112" y1="664" y2="664" stroke="#2563eb" stroke-width="2.1"/>
<text x="118" y="668" font-family="Arial, sans-serif" font-size="12" fill="#374151">K</text>
<line x1="205" x2="229" y1="664" y2="664" stroke="#f59e0b" stroke-width="2.1"/>
<text x="235" y="668" font-family="Arial, sans-serif" font-size="12" fill="#374151">D</text>
<line x1="322" x2="346" y1="664" y2="664" stroke="#7c3aed" stroke-width="1.8"/>
<text x="352" y="668" font-family="Arial, sans-serif" font-size="12" fill="#374151">J</text>
<path d="M127.35,341.61 L132.27,309.87 L137.19,294.54 L142.11,277.54 L147.03,280.43 L151.95,277.14 L156.87,270.58 L161.79,253.52 L166.71,257.44 L171.63,260.17 L176.54,294.22 L181.46,331.08 L186.38,373.93 L191.30,373.95 L196.22,375.01 L201.14,364.08 L206.06,359.63 L210.98,397.09 L215.90,412.24 L220.82,401.63 L225.74,386.50 L230.66,370.85 L235.57,335.77 L240.49,322.21 L245.41,341.83 L250.33,326.54 L255.25,328.25 L260.17,294.31 L265.09,291.64 L270.01,299.31 L274.93,302.03 L279.85,272.02 L284.77,264.47 L289.69,292.31 L294.60,312.23 L299.52,307.73 L304.44,324.47 L309.36,334.55 L314.28,336.22 L319.20,309.01 L324.12,293.50 L329.04,285.70 L333.96,263.78 L338.88,250.35 L343.80,246.10 L348.71,245.74 L353.63,251.05 L358.55,244.06 L363.47,239.69 L368.39,266.43 L373.31,312.23 L378.23,325.99 L383.15,370.20 L388.07,389.00 L392.99,408.43 L397.91,426.62 L402.83,437.00 L407.74,431.62 L412.66,414.67 L417.58,395.75 L422.50,353.64 L427.42,322.06 L432.34,310.44 L437.26,301.08 L442.18,320.45 L447.10,361.83 L452.02,387.00 L456.94,405.21 L461.86,413.94 L466.77,398.83 L471.69,398.03 L476.61,405.81 L481.53,421.42 L486.45,412.26 L491.37,369.94 L496.29,383.33 L501.21,396.91 L506.13,403.17 L511.05,419.43 L515.97,425.94 L520.89,441.29 L525.80,434.86 L530.72,429.73 L535.64,421.15 L540.56,405.38 L545.48,388.45 L550.40,364.01 L555.32,358.69 L560.24,361.87 L565.16,332.73 L570.08,329.17 L575.00,299.49 L579.91,291.07 L584.83,285.58 L589.75,315.25 L594.67,295.65 L599.59,329.37 L604.51,372.09 L609.43,370.60 L614.35,374.99 L619.27,368.29 L624.19,323.78 L629.11,299.24 L634.03,276.06 L638.94,270.61 L643.86,272.33 L648.78,271.29 L653.70,260.29 L658.62,268.63 L663.54,250.98 L668.46,251.46 L673.38,266.25 L678.30,277.20 L683.22,292.65 L688.14,313.82 L693.06,357.87 L697.97,381.16 L702.89,396.63 L707.81,389.05 L712.73,395.93 L717.65,418.80 L722.57,375.78 L727.49,355.21 L732.41,357.07 L737.33,384.04 L742.25,377.27 L747.17,339.14 L752.09,359.67 L757.00,369.10 L761.92,401.79 L766.84,412.36 L771.76,423.00 L776.68,432.76 L781.60,434.07 L786.52,424.69 L791.44,410.74 L796.36,402.64 L801.28,380.93 L806.20,343.65 L811.11,325.20 L816.03,309.57 L820.95,293.54 L825.87,325.25 L830.79,370.77 L835.71,399.39 L840.63,419.50 L845.55,431.19 L850.47,441.86 L855.39,432.74 L860.31,414.44 L865.23,400.33 L870.14,395.29 L875.06,384.99 L879.98,344.48 L884.90,343.20 L889.82,336.57 L894.74,338.53 L899.66,383.02 L904.58,408.39 L909.50,416.33 L914.42,416.72 L919.34,433.07 L924.26,434.93 L929.17,435.70 L934.09,447.48 L939.01,438.43 L943.93,443.31 L948.85,452.68 L953.77,419.79 L958.69,353.55 L963.61,321.62 L968.53,298.39 L973.45,285.73 L978.37,270.72 L983.29,263.88 L988.20,257.76 L993.12,253.65 L998.04,245.55 L1002.96,244.88 L1007.88,241.04 L1012.80,260.31 L1017.72,259.63 L1022.64,249.81 L1027.56,258.97 L1032.48,274.69 L1037.40,260.32 L1042.31,262.72 L1047.23,256.06 L1052.15,270.16 L1057.07,271.42 L1061.99,280.63 L1066.91,287.33 L1071.83,310.52 L1076.75,330.89 L1081.67,363.95 L1086.59,364.01 L1091.51,323.54 L1096.43,322.52 L1101.34,307.57 L1106.26,278.80 L1111.18,272.78 L1116.10,274.47 L1121.02,263.65 L1125.94,282.21 L1130.86,314.31 L1135.78,350.95 L1140.70,371.33 L1145.62,388.63 L1150.54,414.55 L1155.46,429.44 L1160.37,427.42 L1165.29,427.99 L1170.21,411.83 L1175.13,409.33 L1180.05,381.59 L1184.97,361.71 L1189.89,312.86 L1194.81,293.07 L1199.73,273.75 L1204.65,275.78 L1209.57,267.05 L1214.49,253.25 L1219.40,264.91 L1224.32,268.03 L1229.24,254.05 L1234.16,271.64 L1239.08,324.13 L1244.00,371.16" fill="none" stroke="#2563eb" stroke-width="2.1" stroke-linejoin="round" stroke-linecap="round"/>
<path d="M127.35,341.87 L132.27,331.20 L137.19,318.98 L142.11,305.17 L147.03,296.92 L151.95,290.33 L156.87,283.74 L161.79,273.67 L166.71,268.26 L171.63,265.56 L176.54,275.11 L181.46,293.77 L186.38,320.49 L191.30,338.31 L196.22,350.54 L201.14,355.06 L206.06,356.58 L210.98,370.08 L215.90,384.13 L220.82,389.97 L225.74,388.81 L230.66,382.82 L235.57,367.14 L240.49,352.16 L245.41,348.72 L250.33,341.32 L255.25,336.97 L260.17,322.75 L265.09,312.38 L270.01,308.02 L274.93,306.02 L279.85,294.69 L284.77,284.62 L289.69,287.18 L294.60,295.53 L299.52,299.60 L304.44,307.89 L309.36,316.77 L314.28,323.26 L319.20,318.51 L324.12,310.17 L329.04,302.01 L333.96,289.27 L338.88,276.30 L343.80,266.23 L348.71,259.40 L353.63,256.61 L358.55,252.43 L363.47,248.18 L368.39,254.27 L373.31,273.59 L378.23,291.06 L383.15,317.44 L388.07,341.29 L392.99,363.67 L397.91,384.65 L402.83,402.10 L407.74,411.94 L412.66,412.85 L417.58,407.15 L422.50,389.31 L427.42,366.90 L432.34,348.08 L437.26,332.41 L442.18,328.42 L447.10,339.56 L452.02,355.37 L456.94,371.98 L461.86,385.97 L466.77,390.26 L471.69,392.85 L476.61,397.17 L481.53,405.25 L486.45,407.59 L491.37,395.04 L496.29,391.14 L501.21,393.06 L506.13,396.43 L511.05,404.10 L515.97,411.38 L520.89,421.35 L525.80,425.85 L530.72,427.15 L535.64,425.15 L540.56,418.56 L545.48,408.52 L550.40,393.69 L555.32,382.02 L560.24,375.30 L565.16,361.11 L570.08,350.46 L575.00,333.47 L579.91,319.34 L584.83,308.09 L589.75,310.47 L594.67,305.53 L599.59,313.48 L604.51,333.02 L609.43,345.54 L614.35,355.36 L619.27,359.67 L624.19,347.71 L629.11,331.55 L634.03,313.05 L638.94,298.90 L643.86,290.04 L648.78,283.79 L653.70,275.96 L658.62,273.52 L663.54,266.00 L668.46,261.16 L673.38,262.85 L678.30,267.64 L683.22,275.97 L688.14,288.59 L693.06,311.68 L697.97,334.84 L702.89,355.44 L707.81,366.64 L712.73,376.41 L717.65,390.54 L722.57,385.62 L727.49,375.48 L732.41,369.34 L737.33,374.24 L742.25,375.25 L747.17,363.22 L752.09,362.03 L757.00,364.39 L761.92,376.86 L766.84,388.69 L771.76,400.13 L776.68,411.00 L781.60,418.69 L786.52,420.69 L791.44,417.37 L796.36,412.46 L801.28,401.95 L806.20,382.52 L811.11,363.41 L816.03,345.46 L820.95,328.16 L825.87,327.19 L830.79,341.72 L835.71,360.94 L840.63,380.46 L845.55,397.37 L850.47,412.20 L855.39,419.05 L860.31,417.51 L865.23,411.78 L870.14,406.29 L875.06,399.19 L879.98,380.95 L884.90,368.37 L889.82,357.77 L894.74,351.36 L899.66,361.91 L904.58,377.40 L909.50,390.38 L914.42,399.16 L919.34,410.46 L924.26,418.62 L929.17,424.31 L934.09,432.04 L939.01,434.17 L943.93,437.21 L948.85,442.37 L953.77,434.85 L958.69,407.75 L963.61,379.04 L968.53,352.15 L973.45,330.01 L978.37,310.25 L983.29,294.79 L988.20,282.45 L993.12,272.85 L998.04,263.75 L1002.96,257.46 L1007.88,251.99 L1012.80,254.76 L1017.72,256.39 L1022.64,254.19 L1027.56,255.79 L1032.48,262.09 L1037.40,261.50 L1042.31,261.91 L1047.23,259.96 L1052.15,263.36 L1057.07,266.05 L1061.99,270.91 L1066.91,276.38 L1071.83,287.76 L1076.75,302.14 L1081.67,322.74 L1086.59,336.50 L1091.51,332.18 L1096.43,328.96 L1101.34,321.83 L1106.26,307.49 L1111.18,295.92 L1116.10,288.77 L1121.02,280.40 L1125.94,281.00 L1130.86,292.10 L1135.78,311.72 L1140.70,331.59 L1145.62,350.60 L1150.54,371.92 L1155.46,391.09 L1160.37,403.20 L1165.29,411.46 L1170.21,411.58 L1175.13,410.83 L1180.05,401.09 L1184.97,387.96 L1189.89,362.93 L1194.81,339.64 L1199.73,317.68 L1204.65,303.71 L1209.57,291.49 L1214.49,278.74 L1219.40,274.13 L1224.32,272.10 L1229.24,266.08 L1234.16,267.93 L1239.08,286.67 L1244.00,314.83" fill="none" stroke="#f59e0b" stroke-width="2.1" stroke-linejoin="round" stroke-linecap="round"/>
<path d="M127.35,341.10 L132.27,267.20 L137.19,245.65 L142.11,222.29 L147.03,247.45 L151.95,250.77 L156.87,244.24 L161.79,213.23 L166.71,235.80 L171.63,249.38 L176.54,332.42 L181.46,405.71 L186.38,480.80 L191.30,445.23 L196.22,423.94 L201.14,382.13 L206.06,365.73 L210.98,451.09 L215.90,468.44 L220.82,424.96 L225.74,381.88 L230.66,346.90 L235.57,273.03 L240.49,262.30 L245.41,328.05 L250.33,296.97 L255.25,310.83 L260.17,237.43 L265.09,250.16 L270.01,281.88 L274.93,294.04 L279.85,226.68 L284.77,224.18 L289.69,302.57 L294.60,345.62 L299.52,323.99 L304.44,357.63 L309.36,370.09 L314.28,362.15 L319.20,290.01 L324.12,260.15 L329.04,253.09 L333.96,212.80 L338.88,198.46 L343.80,205.83 L348.71,218.41 L353.63,239.91 L358.55,227.32 L363.47,222.71 L368.39,290.76 L373.31,389.52 L378.23,395.87 L383.15,475.73 L388.07,484.41 L392.99,497.94 L397.91,510.56 L402.83,506.80 L407.74,470.98 L412.66,418.31 L417.58,372.94 L422.50,282.30 L427.42,232.39 L432.34,235.17 L437.26,238.41 L442.18,304.50 L447.10,406.36 L452.02,450.25 L456.94,471.66 L461.86,469.87 L466.77,415.98 L471.69,408.39 L476.61,423.10 L481.53,453.74 L486.45,421.61 L491.37,319.75 L496.29,367.72 L501.21,404.60 L506.13,416.64 L511.05,450.10 L515.97,455.06 L520.89,481.18 L525.80,452.89 L530.72,434.90 L535.64,413.16 L540.56,379.03 L545.48,348.29 L550.40,304.66 L555.32,312.03 L560.24,335.01 L565.16,275.96 L570.08,286.58 L575.00,231.53 L579.91,234.53 L584.83,240.56 L589.75,324.80 L594.67,275.88 L599.59,361.15 L604.51,450.25 L609.43,420.70 L614.35,414.26 L619.27,385.53 L624.19,275.93 L629.11,234.61 L634.03,202.07 L638.94,214.01 L643.86,236.89 L648.78,246.28 L653.70,228.96 L658.62,258.86 L663.54,220.93 L668.46,232.07 L673.38,273.03 L678.30,296.34 L683.22,326.00 L688.14,364.29 L693.06,450.24 L697.97,473.80 L702.89,479.02 L707.81,433.87 L712.73,434.98 L717.65,475.31 L722.57,356.11 L727.49,314.67 L732.41,332.52 L737.33,403.63 L742.25,381.31 L747.17,290.99 L752.09,354.94 L757.00,378.51 L761.92,451.66 L766.84,459.71 L771.76,468.73 L776.68,476.27 L781.60,464.82 L786.52,432.69 L791.44,397.47 L796.36,383.00 L801.28,338.89 L806.20,265.91 L811.11,248.79 L816.03,237.77 L820.95,224.30 L825.87,321.37 L830.79,428.89 L835.71,476.30 L840.63,497.58 L845.55,498.84 L850.47,501.17 L855.39,460.12 L860.31,408.29 L865.23,377.43 L870.14,373.30 L875.06,356.60 L879.98,271.54 L884.90,292.88 L889.82,294.17 L894.74,312.88 L899.66,425.24 L904.58,470.35 L909.50,468.23 L914.42,451.84 L919.34,478.28 L924.26,467.56 L929.17,458.48 L934.09,478.38 L939.01,446.95 L943.93,455.50 L948.85,473.31 L953.77,389.69 L958.69,245.15 L963.61,206.78 L968.53,190.86 L973.45,197.17 L978.37,191.66 L983.29,202.06 L988.20,208.37 L993.12,215.25 L998.04,209.16 L1002.96,219.72 L1007.88,219.16 L1012.80,271.41 L1017.72,266.12 L1022.64,241.04 L1027.56,265.35 L1032.48,299.89 L1037.40,257.96 L1042.31,264.35 L1047.23,248.27 L1052.15,283.77 L1057.07,282.17 L1061.99,300.07 L1066.91,309.24 L1071.83,356.03 L1076.75,388.41 L1081.67,446.36 L1086.59,419.03 L1091.51,306.27 L1096.43,309.65 L1101.34,279.04 L1106.26,221.42 L1111.18,226.50 L1116.10,245.88 L1121.02,230.16 L1125.94,284.62 L1130.86,358.72 L1135.78,429.41 L1140.70,450.81 L1145.62,464.69 L1150.54,499.80 L1155.46,506.13 L1160.37,475.87 L1165.29,461.04 L1170.21,412.31 L1175.13,406.32 L1180.05,342.61 L1184.97,309.21 L1189.89,212.72 L1194.81,199.92 L1199.73,185.89 L1204.65,219.93 L1209.57,218.17 L1214.49,202.26 L1219.40,246.46 L1224.32,259.89 L1229.24,229.98 L1234.16,279.05 L1239.08,399.06 L1244.00,483.83" fill="none" stroke="#7c3aed" stroke-width="1.8" stroke-linejoin="round" stroke-linecap="round"/>
</svg>