<svg xmlns="http://www.w3.org/2000/svg" width="1280" height="680" viewBox="0 0 1280 680">
<rect width="100%" height="100%" fill="#ffffff"/>
<text x="88" y="34" font-family="Arial, sans-serif" font-size="22" font-weight="700" fill="#1f2937">SMIC 688981.SH Bollinger Bands(20,2)</text>
<text x="88" y="59" font-family="Arial, sans-serif" font-size="13" fill="#6b7280">Close price with 20-day moving average and +/-2 standard deviation bands</text>
<text x="18" y="342" font-family="Arial, sans-serif" font-size="12" fill="#6b7280" transform="rotate(-90 18,342)">Price</text>
<line x1="88" x2="1244" y1="602.00" y2="602.00" stroke="#e5e7eb" stroke-width="1"/>
<text x="78" y="606.00" text-anchor="end" font-family="Arial, sans-serif" font-size="11" fill="#6b7280">50.00</text>
<line x1="88" x2="1244" y1="428.67" y2="428.67" stroke="#e5e7eb" stroke-width="1"/>
<text x="78" y="432.67" text-anchor="end" font-family="Arial, sans-serif" font-size="11" fill="#6b7280">100.00</text>
<line x1="88" x2="1244" y1="255.33" y2="255.33" stroke="#e5e7eb" stroke-width="1"/>
<text x="78" y="259.33" text-anchor="end" font-family="Arial, sans-serif" font-size="11" fill="#6b7280">150.00</text>
<line x1="88" x2="1244" y1="82.00" y2="82.00" stroke="#e5e7eb" stroke-width="1"/>
<text x="78" y="86.00" text-anchor="end" font-family="Arial, sans-serif" font-size="11" fill="#6b7280">200.00</text>
<line x1="88.00" x2="88.00" y1="82" y2="602" stroke="#f3f4f6" stroke-width="1"/>
<text x="88.00" y="642" text-anchor="middle" font-family="Arial, sans-serif" font-size="11" fill="#6b7280">2025-07-04</text>
<line x1="279.85" x2="279.85" y1="82" y2="602" stroke="#f3f4f6" stroke-width="1"/>
<text x="279.85" y="642" text-anchor="middle" font-family="Arial, sans-serif" font-size="11" fill="#6b7280">2025-08-28</text>
<line x1="471.69" x2="471.69" y1="82" y2="602" stroke="#f3f4f6" stroke-width="1"/>
<text x="471.69" y="642" text-anchor="middle" font-family="Arial, sans-serif" font-size="11" fill="#6b7280">2025-11-07</text>
<line x1="668.46" x2="668.46" y1="82" y2="602" stroke="#f3f4f6" stroke-width="1"/>
<text x="668.46" y="642" text-anchor="middle" font-family="Arial, sans-serif" font-size="11" fill="#6b7280">2026-01-06</text>
<line x1="860.31" x2="860.31" y1="82" y2="602" stroke="#f3f4f6" stroke-width="1"/>
<text x="860.31" y="642" text-anchor="middle" font-family="Arial, sans-serif" font-size="11" fill="#6b7280">2026-03-10</text>
<line x1="1052.15" x2="1052.15" y1="82" y2="602" stroke="#f3f4f6" stroke-width="1"/>
<text x="1052.15" y="642" text-anchor="middle" font-family="Arial, sans-serif" font-size="11" fill="#6b7280">2026-05-08</text>
<line x1="1244.00" x2="1244.00" y1="82" y2="602" stroke="#f3f4f6" stroke-width="1"/>
<text x="1244.00" y="642" text-anchor="middle" font-family="Arial, sans-serif" font-size="11" fill="#6b7280">2026-07-03</text>
<line x1="88" x2="1244" y1="602" y2="602" stroke="#9ca3af" stroke-width="1"/>
<line x1="88" x2="88" y1="82" y2="602" stroke="#9ca3af" stroke-width="1"/>
<path d="M181.46,451.87 L186.38,452.10 L191.30,452.19 L196.22,452.07 L201.14,452.14 L206.06,452.71 L210.98,452.28 L215.90,452.11 L220.82,452.18 L225.74,452.47 L230.66,452.44 L235.57,451.64 L240.49,450.65 L245.41,450.65 L250.33,449.79 L255.25,450.07 L260.17,436.83 L265.09,428.45 L270.01,423.63 L274.93,418.71 L279.85,395.80 L284.77,383.48 L289.69,380.69 L294.60,377.83 L299.52,371.83 L304.44,367.68 L309.36,364.83 L314.28,362.23 L319.20,355.44 L324.12,346.59 L329.04,340.04 L333.96,328.50 L338.88,319.52 L343.80,308.73 L348.71,300.32 L353.63,296.46 L358.55,287.25 L363.47,276.90 L368.39,270.15 L373.31,270.58 L378.23,264.90 L383.15,263.54 L388.07,265.21 L392.99,268.67 L397.91,270.87 L402.83,274.66 L407.74,279.38 L412.66,285.48 L417.58,287.84 L422.50,287.18 L427.42,287.25 L432.34,286.64 L437.26,286.00 L442.18,287.40 L447.10,288.02 L452.02,286.98 L456.94,288.25 L461.86,293.53 L466.77,299.90 L471.69,300.02 L476.61,304.73 L481.53,304.01 L486.45,305.12 L491.37,305.86 L496.29,305.29 L501.21,304.70 L506.13,305.27 L511.05,305.62 L515.97,307.08 L520.89,311.97 L525.80,318.17 L530.72,324.35 L535.64,333.12 L540.56,338.81 L545.48,341.74 L550.40,342.73 L555.32,343.57 L560.24,344.32 L565.16,349.50 L570.08,352.88 L575.00,354.36 L579.91,354.88 L584.83,356.54 L589.75,362.71 L594.67,363.59 L599.59,365.05 L604.51,366.48 L609.43,367.46 L614.35,368.92 L619.27,368.86 L624.19,364.12 L629.11,360.96 L634.03,354.81 L638.94,350.24 L643.86,347.11 L648.78,344.09 L653.70,339.51 L658.62,337.66 L663.54,330.11 L668.46,322.26 L673.38,317.05 L678.30,312.38 L683.22,309.07 L688.14,307.32 L693.06,306.81 L697.97,307.23 L702.89,309.47 L707.81,310.50 L712.73,313.51 L717.65,317.60 L722.57,317.56 L727.49,318.23 L732.41,318.29 L737.33,318.01 L742.25,318.35 L747.17,317.80 L752.09,317.45 L757.00,317.48 L761.92,316.35 L766.84,317.17 L771.76,317.11 L776.68,316.50 L781.60,317.06 L786.52,318.67 L791.44,319.16 L796.36,319.99 L801.28,321.29 L806.20,324.24 L811.11,326.44 L816.03,327.43 L820.95,331.55 L825.87,335.92 L830.79,339.11 L835.71,339.36 L840.63,341.17 L845.55,349.03 L850.47,351.89 L855.39,355.78 L860.31,356.91 L865.23,357.84 L870.14,358.28 L875.06,358.28 L879.98,358.76 L884.90,359.91 L889.82,362.19 L894.74,364.02 L899.66,366.34 L904.58,367.86 L909.50,370.40 L914.42,374.49 L919.34,378.95 L924.26,383.53 L929.17,386.24 L934.09,386.04 L939.01,386.75 L943.93,386.91 L948.85,387.05 L953.77,388.32 L958.69,390.81 L963.61,393.66 L968.53,395.77 L973.45,398.87 L978.37,403.36 L983.29,404.79 L988.20,406.62 L993.12,407.21 L998.04,403.09 L1002.96,398.91 L1007.88,395.04 L1012.80,392.84 L1017.72,387.41 L1022.64,377.92 L1027.56,372.42 L1032.48,369.38 L1037.40,362.01 L1042.31,353.44 L1047.23,345.78 L1052.15,342.40 L1057.07,336.91 L1061.99,333.23 L1066.91,330.23 L1071.83,330.19 L1076.75,330.23 L1081.67,330.60 L1086.59,331.18 L1091.51,321.62 L1096.43,318.39 L1101.34,313.50 L1106.26,282.93 L1111.18,268.78 L1116.10,258.62 L1121.02,243.29 L1125.94,239.67 L1130.86,240.01 L1135.78,239.43 L1140.70,238.25 L1145.62,236.93 L1150.54,237.35 L1155.46,237.28 L1160.37,237.54 L1165.29,237.85 L1170.21,239.13 L1175.13,240.18 L1180.05,241.98 L1184.97,243.85 L1189.89,243.70 L1194.81,241.72 L1199.73,237.66 L1204.65,247.43 L1209.57,245.60 L1214.49,237.35 L1219.40,241.02 L1224.32,235.20 L1229.24,222.78 L1234.16,215.17 L1239.08,213.30 L1244.00,212.59 L1244.00,373.14 L1239.08,374.32 L1234.16,375.95 L1229.24,375.97 L1224.32,372.69 L1219.40,370.72 L1214.49,372.68 L1209.57,368.12 L1204.65,367.10 L1199.73,371.92 L1194.81,372.80 L1189.89,375.49 L1184.97,375.65 L1180.05,381.44 L1175.13,387.71 L1170.21,390.80 L1165.29,395.37 L1160.37,396.89 L1155.46,398.98 L1150.54,398.71 L1145.62,401.58 L1140.70,403.57 L1135.78,406.18 L1130.86,410.36 L1125.94,417.62 L1121.02,422.98 L1116.10,420.53 L1111.18,422.59 L1106.26,423.41 L1101.34,409.53 L1096.43,412.92 L1091.51,416.36 L1086.59,416.71 L1081.67,422.36 L1076.75,427.49 L1071.83,433.59 L1066.91,439.54 L1061.99,443.77 L1057.07,447.80 L1052.15,449.70 L1047.23,454.89 L1042.31,458.86 L1037.40,460.66 L1032.48,461.05 L1027.56,464.39 L1022.64,465.19 L1017.72,462.32 L1012.80,461.77 L1007.88,461.64 L1002.96,460.76 L998.04,459.86 L993.12,457.74 L988.20,458.07 L983.29,459.06 L978.37,459.77 L973.45,461.80 L968.53,462.67 L963.61,463.05 L958.69,463.34 L953.77,463.72 L948.85,461.69 L943.93,456.72 L939.01,452.14 L934.09,449.25 L929.17,444.11 L924.26,441.03 L919.34,439.55 L914.42,437.15 L909.50,435.65 L904.58,432.44 L899.66,427.41 L894.74,424.74 L889.82,423.43 L884.90,422.38 L879.98,420.44 L875.06,419.50 L870.14,417.86 L865.23,415.24 L860.31,413.08 L855.39,410.81 L850.47,408.52 L845.55,405.87 L840.63,406.23 L835.71,402.02 L830.79,397.55 L825.87,396.43 L820.95,396.71 L816.03,397.17 L811.11,396.06 L806.20,394.99 L801.28,394.45 L796.36,393.03 L791.44,390.56 L786.52,388.49 L781.60,385.67 L776.68,380.63 L771.76,373.66 L766.84,368.34 L761.92,363.69 L757.00,358.09 L752.09,358.17 L747.17,356.82 L742.25,358.37 L737.33,359.38 L732.41,358.70 L727.49,359.30 L722.57,362.36 L717.65,364.66 L712.73,371.71 L707.81,379.05 L702.89,384.83 L697.97,391.84 L693.06,396.23 L688.14,398.09 L683.22,401.21 L678.30,402.26 L673.38,402.38 L668.46,401.60 L663.54,399.88 L658.62,397.61 L653.70,399.64 L648.78,399.31 L643.86,399.10 L638.94,398.92 L634.03,397.95 L629.11,395.51 L624.19,395.19 L619.27,393.56 L614.35,393.71 L609.43,393.79 L604.51,393.73 L599.59,392.65 L594.67,392.51 L589.75,392.91 L584.83,395.79 L579.91,396.30 L575.00,396.33 L570.08,396.83 L565.16,397.47 L560.24,399.14 L555.32,397.05 L550.40,395.51 L545.48,394.49 L540.56,393.75 L535.64,393.95 L530.72,395.69 L525.80,394.59 L520.89,392.82 L515.97,390.40 L511.05,387.87 L506.13,384.57 L501.21,381.94 L496.29,379.61 L491.37,377.73 L486.45,377.01 L481.53,374.67 L476.61,370.68 L471.69,369.68 L466.77,367.78 L461.86,369.27 L456.94,367.49 L452.02,363.17 L447.10,357.95 L442.18,355.13 L437.26,354.30 L432.34,355.21 L427.42,355.91 L422.50,360.55 L417.58,364.01 L412.66,370.15 L407.74,382.16 L402.83,393.30 L397.91,402.02 L392.99,408.27 L388.07,419.84 L383.15,430.72 L378.23,433.67 L373.31,433.98 L368.39,443.57 L363.47,449.99 L358.55,452.45 L353.63,454.35 L348.71,464.78 L343.80,470.88 L338.88,475.90 L333.96,479.48 L329.04,480.79 L324.12,485.29 L319.20,488.04 L314.28,491.27 L309.36,496.58 L304.44,501.35 L299.52,503.38 L294.60,504.15 L289.69,506.10 L284.77,507.79 L279.85,504.65 L274.93,492.05 L270.01,490.99 L265.09,489.21 L260.17,484.64 L255.25,475.04 L250.33,475.07 L245.41,475.21 L240.49,475.31 L235.57,475.46 L230.66,475.82 L225.74,476.02 L220.82,476.84 L215.90,477.13 L210.98,476.77 L206.06,475.82 L201.14,478.09 L196.22,479.87 L191.30,480.88 L186.38,482.56 L181.46,483.66 Z" fill="#ede9fe" fill-opacity="0.72"/>
<line x1="88" x2="112" y1="664" y2="664" stroke="#111827" stroke-width="2.4"/>
<text x="118" y="668" font-family="Arial, sans-serif" font-size="12" fill="#374151">Close</text>
<line x1="225" x2="249" y1="664" y2="664" stroke="#2563eb" stroke-width="1.8"/>
<text x="255" y="668" font-family="Arial, sans-serif" font-size="12" fill="#374151">SMA20</text>
<line x1="362" x2="386" y1="664" y2="664" stroke="#7c3aed" stroke-width="1.7"/>
<text x="392" y="668" font-family="Arial, sans-serif" font-size="12" fill="#374151">Upper Band</text>
<line x1="524" x2="548" y1="664" y2="664" stroke="#7c3aed" stroke-width="1.7"/>
<text x="554" y="668" font-family="Arial, sans-serif" font-size="12" fill="#374151">Lower Band</text>
<path d="M88.00,477.89 L92.92,479.00 L97.84,474.63 L102.76,477.72 L107.68,478.34 L112.60,469.71 L117.51,471.93 L122.43,470.65 L127.35,473.32 L132.27,467.53 L137.19,468.50 L142.11,466.73 L147.03,466.52 L151.95,465.45 L156.87,457.27 L161.79,451.30 L166.71,455.78 L171.63,455.81 L176.54,462.09 L181.46,465.07 L186.38,469.26 L191.30,463.09 L196.22,463.33 L201.14,460.63 L206.06,461.29 L210.98,474.91 L215.90,473.87 L220.82,468.46 L225.74,467.98 L230.66,465.21 L235.57,456.95 L240.49,455.33 L245.41,465.59 L250.33,455.43 L255.25,459.69 L260.17,414.90 L265.09,417.68 L270.01,425.44 L274.93,423.43 L279.85,362.04 L284.77,377.50 L289.69,418.30 L294.60,415.11 L299.52,393.03 L304.44,399.48 L309.36,398.65 L314.28,394.76 L319.20,368.38 L324.12,351.88 L329.04,354.69 L333.96,328.41 L338.88,329.83 L343.80,307.40 L348.71,310.42 L353.63,316.80 L358.55,303.80 L363.47,289.55 L368.39,293.78 L373.31,331.77 L378.23,302.24 L383.15,334.37 L388.07,326.19 L392.99,334.03 L397.91,352.47 L402.83,350.22 L407.74,334.41 L412.66,335.73 L417.58,330.56 L422.50,310.59 L427.42,309.07 L432.34,315.34 L437.26,314.27 L442.18,329.69 L447.10,344.84 L452.02,358.61 L456.94,359.75 L461.86,360.10 L466.77,342.52 L471.69,352.02 L476.61,359.30 L481.53,367.20 L486.45,360.62 L491.37,348.59 L496.29,365.64 L501.21,367.55 L506.13,366.41 L511.05,372.23 L515.97,370.50 L520.89,383.60 L525.80,388.77 L530.72,388.18 L535.64,384.61 L540.56,384.61 L545.48,381.52 L550.40,378.75 L555.32,383.60 L560.24,388.38 L565.16,377.60 L570.08,379.51 L575.00,369.04 L579.91,372.09 L584.83,372.13 L589.75,381.49 L594.67,370.43 L599.59,383.57 L604.51,391.57 L609.43,382.59 L614.35,384.29 L619.27,381.42 L624.19,357.77 L629.11,359.68 L634.03,347.51 L638.94,348.66 L643.86,352.05 L648.78,350.67 L653.70,341.03 L658.62,349.52 L663.54,324.84 L668.46,318.29 L673.38,324.74 L678.30,324.15 L683.22,328.55 L688.14,332.78 L693.06,346.75 L697.97,343.77 L702.89,343.94 L707.81,335.10 L712.73,340.99 L717.65,351.78 L722.57,334.41 L727.49,335.76 L732.41,342.14 L737.33,352.68 L742.25,345.29 L747.17,329.69 L752.09,351.01 L757.00,349.04 L761.92,369.53 L766.84,373.10 L771.76,377.22 L776.68,387.76 L781.60,384.64 L786.52,376.91 L791.44,372.51 L796.36,376.63 L801.28,371.19 L806.20,369.98 L811.11,373.82 L816.03,372.75 L820.95,370.95 L825.87,376.67 L830.79,385.23 L835.71,399.86 L840.63,405.47 L845.55,404.75 L850.47,406.13 L855.39,410.85 L860.31,403.43 L865.23,404.05 L870.14,407.83 L875.06,404.19 L879.98,398.85 L884.90,407.80 L889.82,405.79 L894.74,408.01 L899.66,421.11 L904.58,435.46 L909.50,431.27 L914.42,428.70 L919.34,439.48 L924.26,437.33 L929.17,443.12 L934.09,449.29 L939.01,441.39 L943.93,452.24 L948.85,457.16 L953.77,443.85 L958.69,424.58 L963.61,429.64 L968.53,425.17 L973.45,426.45 L978.37,423.40 L983.29,415.11 L988.20,414.18 L993.12,410.54 L998.04,401.07 L1002.96,402.81 L1007.88,401.38 L1012.80,407.94 L1017.72,390.67 L1022.64,371.19 L1027.56,380.13 L1032.48,385.44 L1037.40,363.74 L1042.31,348.59 L1047.23,340.82 L1052.15,358.26 L1057.07,350.60 L1061.99,352.47 L1066.91,352.89 L1071.83,366.61 L1076.75,362.73 L1081.67,367.58 L1086.59,363.42 L1091.51,311.46 L1096.43,334.30 L1101.34,320.06 L1106.26,234.53 L1111.18,258.18 L1116.10,268.44 L1121.02,242.51 L1125.94,290.31 L1130.86,316.21 L1135.78,316.07 L1140.70,310.80 L1145.62,307.75 L1150.54,333.68 L1155.46,352.68 L1160.37,334.03 L1165.29,340.82 L1170.21,333.68 L1175.13,342.42 L1180.05,322.86 L1184.97,324.18 L1189.89,308.37 L1194.81,287.57 L1199.73,270.62 L1204.65,284.11 L1209.57,250.03 L1214.49,231.55 L1219.40,259.63 L1224.32,251.87 L1229.24,224.76 L1234.16,239.80 L1239.08,275.79 L1244.00,288.93" fill="none" stroke="#111827" stroke-width="2.4" stroke-linejoin="round" stroke-linecap="round"/>
<path d="M181.46,467.76 L186.38,467.33 L191.30,466.53 L196.22,465.97 L201.14,465.12 L206.06,464.26 L210.98,464.52 L215.90,464.62 L220.82,464.51 L225.74,464.24 L230.66,464.13 L235.57,463.55 L240.49,462.98 L245.41,462.93 L250.33,462.43 L255.25,462.55 L260.17,460.73 L265.09,458.83 L270.01,457.31 L274.93,455.38 L279.85,450.23 L284.77,445.64 L289.69,443.40 L294.60,440.99 L299.52,437.61 L304.44,434.52 L309.36,430.70 L314.28,426.75 L319.20,421.74 L324.12,415.94 L329.04,410.41 L333.96,403.99 L338.88,397.71 L343.80,389.80 L348.71,382.55 L353.63,375.41 L358.55,369.85 L363.47,363.44 L368.39,356.86 L373.31,352.28 L378.23,349.29 L383.15,347.13 L388.07,342.53 L392.99,338.47 L397.91,336.44 L402.83,333.98 L407.74,330.77 L412.66,327.82 L417.58,325.93 L422.50,323.86 L427.42,321.58 L432.34,320.93 L437.26,320.15 L442.18,321.26 L447.10,322.99 L452.02,325.08 L456.94,327.87 L461.86,331.40 L466.77,333.84 L471.69,334.85 L476.61,337.70 L481.53,339.34 L486.45,341.07 L491.37,341.79 L496.29,342.45 L501.21,343.32 L506.13,344.92 L511.05,346.74 L515.97,348.74 L520.89,352.39 L525.80,356.38 L530.72,360.02 L535.64,363.53 L540.56,366.28 L545.48,368.11 L550.40,369.12 L555.32,370.31 L560.24,371.73 L565.16,373.48 L570.08,374.86 L575.00,375.34 L579.91,375.59 L584.83,376.16 L589.75,377.81 L594.67,378.05 L599.59,378.85 L604.51,380.11 L609.43,380.63 L614.35,381.32 L619.27,381.21 L624.19,379.66 L629.11,378.23 L634.03,376.38 L638.94,374.58 L643.86,373.11 L648.78,371.70 L653.70,369.57 L658.62,367.63 L663.54,364.99 L668.46,361.93 L673.38,359.72 L678.30,357.32 L683.22,355.14 L688.14,352.71 L693.06,351.52 L697.97,349.53 L702.89,347.15 L707.81,344.78 L712.73,342.61 L717.65,341.13 L722.57,339.96 L727.49,338.76 L732.41,338.50 L737.33,338.70 L742.25,338.36 L747.17,337.31 L752.09,337.81 L757.00,337.78 L761.92,340.02 L766.84,342.76 L771.76,345.38 L776.68,348.56 L781.60,351.37 L786.52,353.58 L791.44,354.86 L796.36,356.51 L801.28,357.87 L806.20,359.61 L811.11,361.25 L816.03,362.30 L820.95,364.13 L825.87,366.17 L830.79,368.33 L835.71,370.69 L840.63,373.70 L845.55,377.45 L850.47,380.21 L855.39,383.30 L860.31,384.99 L865.23,386.54 L870.14,388.07 L875.06,388.89 L879.98,389.60 L884.90,391.15 L889.82,392.81 L894.74,394.38 L899.66,396.88 L904.58,400.15 L909.50,403.02 L914.42,405.82 L919.34,409.25 L924.26,412.28 L929.17,415.17 L934.09,417.65 L939.01,419.44 L943.93,421.82 L948.85,424.37 L953.77,426.02 L958.69,427.08 L963.61,428.35 L968.53,429.22 L973.45,430.33 L978.37,431.56 L983.29,431.93 L988.20,432.35 L993.12,432.47 L998.04,431.47 L1002.96,429.84 L1007.88,428.34 L1012.80,427.31 L1017.72,424.87 L1022.64,421.56 L1027.56,418.41 L1032.48,415.22 L1037.40,411.33 L1042.31,406.15 L1047.23,400.33 L1052.15,396.05 L1057.07,392.36 L1061.99,388.50 L1066.91,384.88 L1071.83,381.89 L1076.75,378.86 L1081.67,376.48 L1086.59,373.94 L1091.51,368.99 L1096.43,365.65 L1101.34,361.51 L1106.26,353.17 L1111.18,345.68 L1116.10,339.57 L1121.02,333.14 L1125.94,328.65 L1130.86,325.18 L1135.78,322.80 L1140.70,320.91 L1145.62,319.26 L1150.54,318.03 L1155.46,318.13 L1160.37,317.21 L1165.29,316.61 L1170.21,314.96 L1175.13,313.95 L1180.05,311.71 L1184.97,309.75 L1189.89,309.59 L1194.81,307.26 L1199.73,304.79 L1204.65,307.26 L1209.57,306.86 L1214.49,305.01 L1219.40,305.87 L1224.32,303.95 L1229.24,299.37 L1234.16,295.56 L1239.08,293.81 L1244.00,292.87" fill="none" stroke="#2563eb" stroke-width="1.8" stroke-linejoin="round" stroke-linecap="round"/>
<path d="M181.46,451.87 L186.38,452.10 L191.30,452.19 L196.22,452.07 L201.14,452.14 L206.06,452.71 L210.98,452.28 L215.90,452.11 L220.82,452.18 L225.74,452.47 L230.66,452.44 L235.57,451.64 L240.49,450.65 L245.41,450.65 L250.33,449.79 L255.25,450.07 L260.17,436.83 L265.09,428.45 L270.01,423.63 L274.93,418.71 L279.85,395.80 L284.77,383.48 L289.69,380.69 L294.60,377.83 L299.52,371.83 L304.44,367.68 L309.36,364.83 L314.28,362.23 L319.20,355.44 L324.12,346.59 L329.04,340.04 L333.96,328.50 L338.88,319.52 L343.80,308.73 L348.71,300.32 L353.63,296.46 L358.55,287.25 L363.47,276.90 L368.39,270.15 L373.31,270.58 L378.23,264.90 L383.15,263.54 L388.07,265.21 L392.99,268.67 L397.91,270.87 L402.83,274.66 L407.74,279.38 L412.66,285.48 L417.58,287.84 L422.50,287.18 L427.42,287.25 L432.34,286.64 L437.26,286.00 L442.18,287.40 L447.10,288.02 L452.02,286.98 L456.94,288.25 L461.86,293.53 L466.77,299.90 L471.69,300.02 L476.61,304.73 L481.53,304.01 L486.45,305.12 L491.37,305.86 L496.29,305.29 L501.21,304.70 L506.13,305.27 L511.05,305.62 L515.97,307.08 L520.89,311.97 L525.80,318.17 L530.72,324.35 L535.64,333.12 L540.56,338.81 L545.48,341.74 L550.40,342.73 L555.32,343.57 L560.24,344.32 L565.16,349.50 L570.08,352.88 L575.00,354.36 L579.91,354.88 L584.83,356.54 L589.75,362.71 L594.67,363.59 L599.59,365.05 L604.51,366.48 L609.43,367.46 L614.35,368.92 L619.27,368.86 L624.19,364.12 L629.11,360.96 L634.03,354.81 L638.94,350.24 L643.86,347.11 L648.78,344.09 L653.70,339.51 L658.62,337.66 L663.54,330.11 L668.46,322.26 L673.38,317.05 L678.30,312.38 L683.22,309.07 L688.14,307.32 L693.06,306.81 L697.97,307.23 L702.89,309.47 L707.81,310.50 L712.73,313.51 L717.65,317.60 L722.57,317.56 L727.49,318.23 L732.41,318.29 L737.33,318.01 L742.25,318.35 L747.17,317.80 L752.09,317.45 L757.00,317.48 L761.92,316.35 L766.84,317.17 L771.76,317.11 L776.68,316.50 L781.60,317.06 L786.52,318.67 L791.44,319.16 L796.36,319.99 L801.28,321.29 L806.20,324.24 L811.11,326.44 L816.03,327.43 L820.95,331.55 L825.87,335.92 L830.79,339.11 L835.71,339.36 L840.63,341.17 L845.55,349.03 L850.47,351.89 L855.39,355.78 L860.31,356.91 L865.23,357.84 L870.14,358.28 L875.06,358.28 L879.98,358.76 L884.90,359.91 L889.82,362.19 L894.74,364.02 L899.66,366.34 L904.58,367.86 L909.50,370.40 L914.42,374.49 L919.34,378.95 L924.26,383.53 L929.17,386.24 L934.09,386.04 L939.01,386.75 L943.93,386.91 L948.85,387.05 L953.77,388.32 L958.69,390.81 L963.61,393.66 L968.53,395.77 L973.45,398.87 L978.37,403.36 L983.29,404.79 L988.20,406.62 L993.12,407.21 L998.04,403.09 L1002.96,398.91 L1007.88,395.04 L1012.80,392.84 L1017.72,387.41 L1022.64,377.92 L1027.56,372.42 L1032.48,369.38 L1037.40,362.01 L1042.31,353.44 L1047.23,345.78 L1052.15,342.40 L1057.07,336.91 L1061.99,333.23 L1066.91,330.23 L1071.83,330.19 L1076.75,330.23 L1081.67,330.60 L1086.59,331.18 L1091.51,321.62 L1096.43,318.39 L1101.34,313.50 L1106.26,282.93 L1111.18,268.78 L1116.10,258.62 L1121.02,243.29 L1125.94,239.67 L1130.86,240.01 L1135.78,239.43 L1140.70,238.25 L1145.62,236.93 L1150.54,237.35 L1155.46,237.28 L1160.37,237.54 L1165.29,237.85 L1170.21,239.13 L1175.13,240.18 L1180.05,241.98 L1184.97,243.85 L1189.89,243.70 L1194.81,241.72 L1199.73,237.66 L1204.65,247.43 L1209.57,245.60 L1214.49,237.35 L1219.40,241.02 L1224.32,235.20 L1229.24,222.78 L1234.16,215.17 L1239.08,213.30 L1244.00,212.59" fill="none" stroke="#7c3aed" stroke-width="1.7" stroke-linejoin="round" stroke-linecap="round"/>
<path d="M181.46,483.66 L186.38,482.56 L191.30,480.88 L196.22,479.87 L201.14,478.09 L206.06,475.82 L210.98,476.77 L215.90,477.13 L220.82,476.84 L225.74,476.02 L230.66,475.82 L235.57,475.46 L240.49,475.31 L245.41,475.21 L250.33,475.07 L255.25,475.04 L260.17,484.64 L265.09,489.21 L270.01,490.99 L274.93,492.05 L279.85,504.65 L284.77,507.79 L289.69,506.10 L294.60,504.15 L299.52,503.38 L304.44,501.35 L309.36,496.58 L314.28,491.27 L319.20,488.04 L324.12,485.29 L329.04,480.79 L333.96,479.48 L338.88,475.90 L343.80,470.88 L348.71,464.78 L353.63,454.35 L358.55,452.45 L363.47,449.99 L368.39,443.57 L373.31,433.98 L378.23,433.67 L383.15,430.72 L388.07,419.84 L392.99,408.27 L397.91,402.02 L402.83,393.30 L407.74,382.16 L412.66,370.15 L417.58,364.01 L422.50,360.55 L427.42,355.91 L432.34,355.21 L437.26,354.30 L442.18,355.13 L447.10,357.95 L452.02,363.17 L456.94,367.49 L461.86,369.27 L466.77,367.78 L471.69,369.68 L476.61,370.68 L481.53,374.67 L486.45,377.01 L491.37,377.73 L496.29,379.61 L501.21,381.94 L506.13,384.57 L511.05,387.87 L515.97,390.40 L520.89,392.82 L525.80,394.59 L530.72,395.69 L535.64,393.95 L540.56,393.75 L545.48,394.49 L550.40,395.51 L555.32,397.05 L560.24,399.14 L565.16,397.47 L570.08,396.83 L575.00,396.33 L579.91,396.30 L584.83,395.79 L589.75,392.91 L594.67,392.51 L599.59,392.65 L604.51,393.73 L609.43,393.79 L614.35,393.71 L619.27,393.56 L624.19,395.19 L629.11,395.51 L634.03,397.95 L638.94,398.92 L643.86,399.10 L648.78,399.31 L653.70,399.64 L658.62,397.61 L663.54,399.88 L668.46,401.60 L673.38,402.38 L678.30,402.26 L683.22,401.21 L688.14,398.09 L693.06,396.23 L697.97,391.84 L702.89,384.83 L707.81,379.05 L712.73,371.71 L717.65,364.66 L722.57,362.36 L727.49,359.30 L732.41,358.70 L737.33,359.38 L742.25,358.37 L747.17,356.82 L752.09,358.17 L757.00,358.09 L761.92,363.69 L766.84,368.34 L771.76,373.66 L776.68,380.63 L781.60,385.67 L786.52,388.49 L791.44,390.56 L796.36,393.03 L801.28,394.45 L806.20,394.99 L811.11,396.06 L816.03,397.17 L820.95,396.71 L825.87,396.43 L830.79,397.55 L835.71,402.02 L840.63,406.23 L845.55,405.87 L850.47,408.52 L855.39,410.81 L860.31,413.08 L865.23,415.24 L870.14,417.86 L875.06,419.50 L879.98,420.44 L884.90,422.38 L889.82,423.43 L894.74,424.74 L899.66,427.41 L904.58,432.44 L909.50,435.65 L914.42,437.15 L919.34,439.55 L924.26,441.03 L929.17,444.11 L934.09,449.25 L939.01,452.14 L943.93,456.72 L948.85,461.69 L953.77,463.72 L958.69,463.34 L963.61,463.05 L968.53,462.67 L973.45,461.80 L978.37,459.77 L983.29,459.06 L988.20,458.07 L993.12,457.74 L998.04,459.86 L1002.96,460.76 L1007.88,461.64 L1012.80,461.77 L1017.72,462.32 L1022.64,465.19 L1027.56,464.39 L1032.48,461.05 L1037.40,460.66 L1042.31,458.86 L1047.23,454.89 L1052.15,449.70 L1057.07,447.80 L1061.99,443.77 L1066.91,439.54 L1071.83,433.59 L1076.75,427.49 L1081.67,422.36 L1086.59,416.71 L1091.51,416.36 L1096.43,412.92 L1101.34,409.53 L1106.26,423.41 L1111.18,422.59 L1116.10,420.53 L1121.02,422.98 L1125.94,417.62 L1130.86,410.36 L1135.78,406.18 L1140.70,403.57 L1145.62,401.58 L1150.54,398.71 L1155.46,398.98 L1160.37,396.89 L1165.29,395.37 L1170.21,390.80 L1175.13,387.71 L1180.05,381.44 L1184.97,375.65 L1189.89,375.49 L1194.81,372.80 L1199.73,371.92 L1204.65,367.10 L1209.57,368.12 L1214.49,372.68 L1219.40,370.72 L1224.32,372.69 L1229.24,375.97 L1234.16,375.95 L1239.08,374.32 L1244.00,373.14" fill="none" stroke="#7c3aed" stroke-width="1.7" stroke-linejoin="round" stroke-linecap="round"/>
</svg>