<svg xmlns="http://www.w3.org/2000/svg" width="1280" height="680" viewBox="0 0 1280 680">
<rect width="100%" height="100%" fill="#ffffff"/>
<text x="88" y="34" font-family="Arial, sans-serif" font-size="22" font-weight="700" fill="#1f2937">SMIC 688981.SH MACD(12,26,9)</text>
<text x="88" y="59" font-family="Arial, sans-serif" font-size="13" fill="#6b7280">MACD line, signal line, and histogram</text>
<line x1="88" x2="1244" y1="602.00" y2="602.00" stroke="#e5e7eb" stroke-width="1"/>
<text x="78" y="606.00" text-anchor="end" font-family="Arial, sans-serif" font-size="11" fill="#6b7280">-15.00</text>
<line x1="88" x2="1244" y1="515.33" y2="515.33" stroke="#e5e7eb" stroke-width="1"/>
<text x="78" y="519.33" text-anchor="end" font-family="Arial, sans-serif" font-size="11" fill="#6b7280">-10.00</text>
<line x1="88" x2="1244" y1="428.67" y2="428.67" stroke="#e5e7eb" stroke-width="1"/>
<text x="78" y="432.67" text-anchor="end" font-family="Arial, sans-serif" font-size="11" fill="#6b7280">-5.00</text>
<line x1="88" x2="1244" y1="342.00" y2="342.00" stroke="#e5e7eb" stroke-width="1"/>
<text x="78" y="346.00" text-anchor="end" font-family="Arial, sans-serif" font-size="11" fill="#6b7280">0.00</text>
<line x1="88" x2="1244" y1="255.33" y2="255.33" stroke="#e5e7eb" stroke-width="1"/>
<text x="78" y="259.33" text-anchor="end" font-family="Arial, sans-serif" font-size="11" fill="#6b7280">5.00</text>
<line x1="88" x2="1244" y1="168.67" y2="168.67" stroke="#e5e7eb" stroke-width="1"/>
<text x="78" y="172.67" text-anchor="end" font-family="Arial, sans-serif" font-size="11" fill="#6b7280">10.00</text>
<line x1="88" x2="1244" y1="82.00" y2="82.00" stroke="#e5e7eb" stroke-width="1"/>
<text x="78" y="86.00" text-anchor="end" font-family="Arial, sans-serif" font-size="11" fill="#6b7280">15.00</text>
<line x1="88.00" x2="88.00" y1="82" y2="602" stroke="#f3f4f6" stroke-width="1"/>
<text x="88.00" y="642" text-anchor="middle" font-family="Arial, sans-serif" font-size="11" fill="#6b7280">2025-07-04</text>
<line x1="279.85" x2="279.85" y1="82" y2="602" stroke="#f3f4f6" stroke-width="1"/>
<text x="279.85" y="642" text-anchor="middle" font-family="Arial, sans-serif" font-size="11" fill="#6b7280">2025-08-28</text>
<line x1="471.69" x2="471.69" y1="82" y2="602" stroke="#f3f4f6" stroke-width="1"/>
<text x="471.69" y="642" text-anchor="middle" font-family="Arial, sans-serif" font-size="11" fill="#6b7280">2025-11-07</text>
<line x1="668.46" x2="668.46" y1="82" y2="602" stroke="#f3f4f6" stroke-width="1"/>
<text x="668.46" y="642" text-anchor="middle" font-family="Arial, sans-serif" font-size="11" fill="#6b7280">2026-01-06</text>
<line x1="860.31" x2="860.31" y1="82" y2="602" stroke="#f3f4f6" stroke-width="1"/>
<text x="860.31" y="642" text-anchor="middle" font-family="Arial, sans-serif" font-size="11" fill="#6b7280">2026-03-10</text>
<line x1="1052.15" x2="1052.15" y1="82" y2="602" stroke="#f3f4f6" stroke-width="1"/>
<text x="1052.15" y="642" text-anchor="middle" font-family="Arial, sans-serif" font-size="11" fill="#6b7280">2026-05-08</text>
<line x1="1244.00" x2="1244.00" y1="82" y2="602" stroke="#f3f4f6" stroke-width="1"/>
<text x="1244.00" y="642" text-anchor="middle" font-family="Arial, sans-serif" font-size="11" fill="#6b7280">2026-07-03</text>
<line x1="88" x2="1244" y1="342.00" y2="342.00" stroke="#6b7280" stroke-width="1.2"/>
<line x1="88" x2="1244" y1="602" y2="602" stroke="#9ca3af" stroke-width="1"/>
<line x1="88" x2="88" y1="82" y2="602" stroke="#9ca3af" stroke-width="1"/>
<rect x="86.48" y="342.00" width="3.04" height="0.00" fill="#dc2626" opacity="0.62"/>
<rect x="91.40" y="342.00" width="3.04" height="0.35" fill="#059669" opacity="0.62"/>
<rect x="96.32" y="341.16" width="3.04" height="0.84" fill="#dc2626" opacity="0.62"/>
<rect x="101.24" y="341.45" width="3.04" height="0.55" fill="#dc2626" opacity="0.62"/>
<rect x="106.16" y="341.85" width="3.04" height="0.15" fill="#dc2626" opacity="0.62"/>
<rect x="111.08" y="339.36" width="3.04" height="2.64" fill="#dc2626" opacity="0.62"/>
<rect x="116.00" y="338.66" width="3.04" height="3.34" fill="#dc2626" opacity="0.62"/>
<rect x="120.92" y="338.00" width="3.04" height="4.00" fill="#dc2626" opacity="0.62"/>
<rect x="125.83" y="338.67" width="3.04" height="3.33" fill="#dc2626" opacity="0.62"/>
<rect x="130.75" y="337.46" width="3.04" height="4.54" fill="#dc2626" opacity="0.62"/>
<rect x="135.67" y="337.28" width="3.04" height="4.72" fill="#dc2626" opacity="0.62"/>
<rect x="140.59" y="336.91" width="3.04" height="5.09" fill="#dc2626" opacity="0.62"/>
<rect x="145.51" y="336.95" width="3.04" height="5.05" fill="#dc2626" opacity="0.62"/>
<rect x="150.43" y="336.97" width="3.04" height="5.03" fill="#dc2626" opacity="0.62"/>
<rect x="155.35" y="334.72" width="3.04" height="7.28" fill="#dc2626" opacity="0.62"/>
<rect x="160.27" y="331.90" width="3.04" height="10.10" fill="#dc2626" opacity="0.62"/>
<rect x="165.19" y="332.21" width="3.04" height="9.79" fill="#dc2626" opacity="0.62"/>
<rect x="170.11" y="333.09" width="3.04" height="8.91" fill="#dc2626" opacity="0.62"/>
<rect x="175.03" y="336.27" width="3.04" height="5.73" fill="#dc2626" opacity="0.62"/>
<rect x="179.95" y="339.71" width="3.04" height="2.29" fill="#dc2626" opacity="0.62"/>
<rect x="184.86" y="342.00" width="3.04" height="1.51" fill="#059669" opacity="0.62"/>
<rect x="189.78" y="342.00" width="3.04" height="2.03" fill="#059669" opacity="0.62"/>
<rect x="194.70" y="342.00" width="3.04" height="2.50" fill="#059669" opacity="0.62"/>
<rect x="199.62" y="342.00" width="3.04" height="1.98" fill="#059669" opacity="0.62"/>
<rect x="204.54" y="342.00" width="3.04" height="1.94" fill="#059669" opacity="0.62"/>
<rect x="209.46" y="342.00" width="3.04" height="6.32" fill="#059669" opacity="0.62"/>
<rect x="214.38" y="342.00" width="3.04" height="8.55" fill="#059669" opacity="0.62"/>
<rect x="219.30" y="342.00" width="3.04" height="7.91" fill="#059669" opacity="0.62"/>
<rect x="224.22" y="342.00" width="3.04" height="7.06" fill="#059669" opacity="0.62"/>
<rect x="229.14" y="342.00" width="3.04" height="5.36" fill="#059669" opacity="0.62"/>
<rect x="234.06" y="342.00" width="3.04" height="1.48" fill="#059669" opacity="0.62"/>
<rect x="238.98" y="340.52" width="3.04" height="1.48" fill="#dc2626" opacity="0.62"/>
<rect x="243.89" y="342.00" width="3.04" height="0.11" fill="#059669" opacity="0.62"/>
<rect x="248.81" y="339.95" width="3.04" height="2.05" fill="#dc2626" opacity="0.62"/>
<rect x="253.73" y="340.15" width="3.04" height="1.85" fill="#dc2626" opacity="0.62"/>
<rect x="258.65" y="326.17" width="3.04" height="15.83" fill="#dc2626" opacity="0.62"/>
<rect x="263.57" y="319.26" width="3.04" height="22.74" fill="#dc2626" opacity="0.62"/>
<rect x="268.49" y="318.78" width="3.04" height="23.22" fill="#dc2626" opacity="0.62"/>
<rect x="273.41" y="319.29" width="3.04" height="22.71" fill="#dc2626" opacity="0.62"/>
<rect x="278.33" y="301.50" width="3.04" height="40.50" fill="#dc2626" opacity="0.62"/>
<rect x="283.25" y="297.78" width="3.04" height="44.22" fill="#dc2626" opacity="0.62"/>
<rect x="288.17" y="311.27" width="3.04" height="30.73" fill="#dc2626" opacity="0.62"/>
<rect x="293.09" y="320.87" width="3.04" height="21.13" fill="#dc2626" opacity="0.62"/>
<rect x="298.00" y="321.55" width="3.04" height="20.45" fill="#dc2626" opacity="0.62"/>
<rect x="302.92" y="325.75" width="3.04" height="16.25" fill="#dc2626" opacity="0.62"/>
<rect x="307.84" y="329.65" width="3.04" height="12.35" fill="#dc2626" opacity="0.62"/>
<rect x="312.76" y="332.21" width="3.04" height="9.79" fill="#dc2626" opacity="0.62"/>
<rect x="317.68" y="326.65" width="3.04" height="15.35" fill="#dc2626" opacity="0.62"/>
<rect x="322.60" y="319.47" width="3.04" height="22.53" fill="#dc2626" opacity="0.62"/>
<rect x="327.52" y="317.86" width="3.04" height="24.14" fill="#dc2626" opacity="0.62"/>
<rect x="332.44" y="310.61" width="3.04" height="31.39" fill="#dc2626" opacity="0.62"/>
<rect x="337.36" y="309.11" width="3.04" height="32.89" fill="#dc2626" opacity="0.62"/>
<rect x="342.28" y="303.76" width="3.04" height="38.24" fill="#dc2626" opacity="0.62"/>
<rect x="347.20" y="304.48" width="3.04" height="37.52" fill="#dc2626" opacity="0.62"/>
<rect x="352.12" y="310.13" width="3.04" height="31.87" fill="#dc2626" opacity="0.62"/>
<rect x="357.03" y="312.46" width="3.04" height="29.54" fill="#dc2626" opacity="0.62"/>
<rect x="361.95" y="312.25" width="3.04" height="29.75" fill="#dc2626" opacity="0.62"/>
<rect x="366.87" y="316.43" width="3.04" height="25.57" fill="#dc2626" opacity="0.62"/>
<rect x="371.79" y="333.98" width="3.04" height="8.02" fill="#dc2626" opacity="0.62"/>
<rect x="376.71" y="337.45" width="3.04" height="4.55" fill="#dc2626" opacity="0.62"/>
<rect x="381.63" y="342.00" width="3.04" height="9.60" fill="#059669" opacity="0.62"/>
<rect x="386.55" y="342.00" width="3.04" height="16.83" fill="#059669" opacity="0.62"/>
<rect x="391.47" y="342.00" width="3.04" height="24.40" fill="#059669" opacity="0.62"/>
<rect x="396.39" y="342.00" width="3.04" height="35.13" fill="#059669" opacity="0.62"/>
<rect x="401.31" y="342.00" width="3.04" height="40.58" fill="#059669" opacity="0.62"/>
<rect x="406.23" y="342.00" width="3.04" height="38.03" fill="#059669" opacity="0.62"/>
<rect x="411.15" y="342.00" width="3.04" height="35.97" fill="#059669" opacity="0.62"/>
<rect x="416.06" y="342.00" width="3.04" height="32.17" fill="#059669" opacity="0.62"/>
<rect x="420.98" y="342.00" width="3.04" height="22.70" fill="#059669" opacity="0.62"/>
<rect x="425.90" y="342.00" width="3.04" height="15.98" fill="#059669" opacity="0.62"/>
<rect x="430.82" y="342.00" width="3.04" height="13.81" fill="#059669" opacity="0.62"/>
<rect x="435.74" y="342.00" width="3.04" height="12.22" fill="#059669" opacity="0.62"/>
<rect x="440.66" y="342.00" width="3.04" height="16.32" fill="#059669" opacity="0.62"/>
<rect x="445.58" y="342.00" width="3.04" height="23.63" fill="#059669" opacity="0.62"/>
<rect x="450.50" y="342.00" width="3.04" height="32.09" fill="#059669" opacity="0.62"/>
<rect x="455.42" y="342.00" width="3.04" height="36.72" fill="#059669" opacity="0.62"/>
<rect x="460.34" y="342.00" width="3.04" height="38.37" fill="#059669" opacity="0.62"/>
<rect x="465.26" y="342.00" width="3.04" height="32.26" fill="#059669" opacity="0.62"/>
<rect x="470.18" y="342.00" width="3.04" height="30.17" fill="#059669" opacity="0.62"/>
<rect x="475.09" y="342.00" width="3.04" height="29.94" fill="#059669" opacity="0.62"/>
<rect x="480.01" y="342.00" width="3.04" height="31.01" fill="#059669" opacity="0.62"/>
<rect x="484.93" y="342.00" width="3.04" height="28.14" fill="#059669" opacity="0.62"/>
<rect x="489.85" y="342.00" width="3.04" height="21.17" fill="#059669" opacity="0.62"/>
<rect x="494.77" y="342.00" width="3.04" height="21.21" fill="#059669" opacity="0.62"/>
<rect x="499.69" y="342.00" width="3.04" height="20.76" fill="#059669" opacity="0.62"/>
<rect x="504.61" y="342.00" width="3.04" height="19.01" fill="#059669" opacity="0.62"/>
<rect x="509.53" y="342.00" width="3.04" height="18.72" fill="#059669" opacity="0.62"/>
<rect x="514.45" y="342.00" width="3.04" height="16.91" fill="#059669" opacity="0.62"/>
<rect x="519.37" y="342.00" width="3.04" height="18.92" fill="#059669" opacity="0.62"/>
<rect x="524.29" y="342.00" width="3.04" height="20.66" fill="#059669" opacity="0.62"/>
<rect x="529.20" y="342.00" width="3.04" height="20.25" fill="#059669" opacity="0.62"/>
<rect x="534.12" y="342.00" width="3.04" height="17.52" fill="#059669" opacity="0.62"/>
<rect x="539.04" y="342.00" width="3.04" height="14.57" fill="#059669" opacity="0.62"/>
<rect x="543.96" y="342.00" width="3.04" height="10.63" fill="#059669" opacity="0.62"/>
<rect x="548.88" y="342.00" width="3.04" height="6.34" fill="#059669" opacity="0.62"/>
<rect x="553.80" y="342.00" width="3.04" height="4.48" fill="#059669" opacity="0.62"/>
<rect x="558.72" y="342.00" width="3.04" height="4.21" fill="#059669" opacity="0.62"/>
<rect x="563.64" y="341.98" width="3.04" height="0.02" fill="#dc2626" opacity="0.62"/>
<rect x="568.56" y="339.52" width="3.04" height="2.48" fill="#dc2626" opacity="0.62"/>
<rect x="573.48" y="334.37" width="3.04" height="7.63" fill="#dc2626" opacity="0.62"/>
<rect x="578.40" y="332.14" width="3.04" height="9.86" fill="#dc2626" opacity="0.62"/>
<rect x="583.32" y="330.90" width="3.04" height="11.10" fill="#dc2626" opacity="0.62"/>
<rect x="588.23" y="333.36" width="3.04" height="8.64" fill="#dc2626" opacity="0.62"/>
<rect x="593.15" y="331.51" width="3.04" height="10.49" fill="#dc2626" opacity="0.62"/>
<rect x="598.07" y="334.80" width="3.04" height="7.20" fill="#dc2626" opacity="0.62"/>
<rect x="602.99" y="339.51" width="3.04" height="2.49" fill="#dc2626" opacity="0.62"/>
<rect x="607.91" y="339.47" width="3.04" height="2.53" fill="#dc2626" opacity="0.62"/>
<rect x="612.83" y="339.85" width="3.04" height="2.15" fill="#dc2626" opacity="0.62"/>
<rect x="617.75" y="339.02" width="3.04" height="2.98" fill="#dc2626" opacity="0.62"/>
<rect x="622.67" y="330.86" width="3.04" height="11.14" fill="#dc2626" opacity="0.62"/>
<rect x="627.59" y="326.71" width="3.04" height="15.29" fill="#dc2626" opacity="0.62"/>
<rect x="632.51" y="320.84" width="3.04" height="21.16" fill="#dc2626" opacity="0.62"/>
<rect x="637.43" y="318.49" width="3.04" height="23.51" fill="#dc2626" opacity="0.62"/>
<rect x="642.35" y="319.24" width="3.04" height="22.76" fill="#dc2626" opacity="0.62"/>
<rect x="647.26" y="320.42" width="3.04" height="21.58" fill="#dc2626" opacity="0.62"/>
<rect x="652.18" y="319.23" width="3.04" height="22.77" fill="#dc2626" opacity="0.62"/>
<rect x="657.10" y="322.45" width="3.04" height="19.55" fill="#dc2626" opacity="0.62"/>
<rect x="662.02" y="317.72" width="3.04" height="24.28" fill="#dc2626" opacity="0.62"/>
<rect x="666.94" y="314.10" width="3.04" height="27.90" fill="#dc2626" opacity="0.62"/>
<rect x="671.86" y="315.58" width="3.04" height="26.42" fill="#dc2626" opacity="0.62"/>
<rect x="676.78" y="317.99" width="3.04" height="24.01" fill="#dc2626" opacity="0.62"/>
<rect x="681.70" y="322.50" width="3.04" height="19.50" fill="#dc2626" opacity="0.62"/>
<rect x="686.62" y="328.09" width="3.04" height="13.91" fill="#dc2626" opacity="0.62"/>
<rect x="691.54" y="337.19" width="3.04" height="4.81" fill="#dc2626" opacity="0.62"/>
<rect x="696.46" y="342.00" width="3.04" height="0.63" fill="#059669" opacity="0.62"/>
<rect x="701.38" y="342.00" width="3.04" height="4.48" fill="#059669" opacity="0.62"/>
<rect x="706.29" y="342.00" width="3.04" height="4.26" fill="#059669" opacity="0.62"/>
<rect x="711.21" y="342.00" width="3.04" height="6.18" fill="#059669" opacity="0.62"/>
<rect x="716.13" y="342.00" width="3.04" height="10.90" fill="#059669" opacity="0.62"/>
<rect x="721.05" y="342.00" width="3.04" height="8.11" fill="#059669" opacity="0.62"/>
<rect x="725.97" y="342.00" width="3.04" height="6.71" fill="#059669" opacity="0.62"/>
<rect x="730.89" y="342.00" width="3.04" height="7.86" fill="#059669" opacity="0.62"/>
<rect x="735.81" y="342.00" width="3.04" height="11.84" fill="#059669" opacity="0.62"/>
<rect x="740.73" y="342.00" width="3.04" height="11.65" fill="#059669" opacity="0.62"/>
<rect x="745.65" y="342.00" width="3.04" height="6.20" fill="#059669" opacity="0.62"/>
<rect x="750.57" y="342.00" width="3.04" height="9.51" fill="#059669" opacity="0.62"/>
<rect x="755.49" y="342.00" width="3.04" height="10.69" fill="#059669" opacity="0.62"/>
<rect x="760.40" y="342.00" width="3.04" height="17.60" fill="#059669" opacity="0.62"/>
<rect x="765.32" y="342.00" width="3.04" height="22.31" fill="#059669" opacity="0.62"/>
<rect x="770.24" y="342.00" width="3.04" height="25.53" fill="#059669" opacity="0.62"/>
<rect x="775.16" y="342.00" width="3.04" height="29.62" fill="#059669" opacity="0.62"/>
<rect x="780.08" y="342.00" width="3.04" height="29.62" fill="#059669" opacity="0.62"/>
<rect x="785.00" y="342.00" width="3.04" height="25.52" fill="#059669" opacity="0.62"/>
<rect x="789.92" y="342.00" width="3.04" height="20.06" fill="#059669" opacity="0.62"/>
<rect x="794.84" y="342.00" width="3.04" height="16.72" fill="#059669" opacity="0.62"/>
<rect x="799.76" y="342.00" width="3.04" height="11.79" fill="#059669" opacity="0.62"/>
<rect x="804.68" y="342.00" width="3.04" height="7.45" fill="#059669" opacity="0.62"/>
<rect x="809.60" y="342.00" width="3.04" height="5.29" fill="#059669" opacity="0.62"/>
<rect x="814.52" y="342.00" width="3.04" height="3.04" fill="#059669" opacity="0.62"/>
<rect x="819.43" y="342.00" width="3.04" height="0.61" fill="#059669" opacity="0.62"/>
<rect x="824.35" y="342.00" width="3.04" height="0.59" fill="#059669" opacity="0.62"/>
<rect x="829.27" y="342.00" width="3.04" height="2.99" fill="#059669" opacity="0.62"/>
<rect x="834.19" y="342.00" width="3.04" height="8.71" fill="#059669" opacity="0.62"/>
<rect x="839.11" y="342.00" width="3.04" height="13.31" fill="#059669" opacity="0.62"/>
<rect x="844.03" y="342.00" width="3.04" height="14.92" fill="#059669" opacity="0.62"/>
<rect x="848.95" y="342.00" width="3.04" height="15.21" fill="#059669" opacity="0.62"/>
<rect x="853.87" y="342.00" width="3.04" height="15.68" fill="#059669" opacity="0.62"/>
<rect x="858.79" y="342.00" width="3.04" height="12.33" fill="#059669" opacity="0.62"/>
<rect x="863.71" y="342.00" width="3.04" height="9.31" fill="#059669" opacity="0.62"/>
<rect x="868.63" y="342.00" width="3.04" height="7.63" fill="#059669" opacity="0.62"/>
<rect x="873.55" y="342.00" width="3.04" height="4.50" fill="#059669" opacity="0.62"/>
<rect x="878.46" y="342.00" width="3.04" height="0.07" fill="#059669" opacity="0.62"/>
<rect x="883.38" y="341.62" width="3.04" height="0.38" fill="#dc2626" opacity="0.62"/>
<rect x="888.30" y="340.18" width="3.04" height="1.82" fill="#dc2626" opacity="0.62"/>
<rect x="893.22" y="339.57" width="3.04" height="2.43" fill="#dc2626" opacity="0.62"/>
<rect x="898.14" y="342.00" width="3.04" height="0.97" fill="#059669" opacity="0.62"/>
<rect x="903.06" y="342.00" width="3.04" height="7.11" fill="#059669" opacity="0.62"/>
<rect x="907.98" y="342.00" width="3.04" height="8.71" fill="#059669" opacity="0.62"/>
<rect x="912.90" y="342.00" width="3.04" height="7.89" fill="#059669" opacity="0.62"/>
<rect x="917.82" y="342.00" width="3.04" height="9.82" fill="#059669" opacity="0.62"/>
<rect x="922.74" y="342.00" width="3.04" height="9.24" fill="#059669" opacity="0.62"/>
<rect x="927.66" y="342.00" width="3.04" height="9.62" fill="#059669" opacity="0.62"/>
<rect x="932.58" y="342.00" width="3.04" height="10.68" fill="#059669" opacity="0.62"/>
<rect x="937.49" y="342.00" width="3.04" height="7.60" fill="#059669" opacity="0.62"/>
<rect x="942.41" y="342.00" width="3.04" height="8.05" fill="#059669" opacity="0.62"/>
<rect x="947.33" y="342.00" width="3.04" height="8.79" fill="#059669" opacity="0.62"/>
<rect x="952.25" y="342.00" width="3.04" height="3.82" fill="#059669" opacity="0.62"/>
<rect x="957.17" y="335.63" width="3.04" height="6.37" fill="#dc2626" opacity="0.62"/>
<rect x="962.09" y="330.47" width="3.04" height="11.53" fill="#dc2626" opacity="0.62"/>
<rect x="967.01" y="325.73" width="3.04" height="16.27" fill="#dc2626" opacity="0.62"/>
<rect x="971.93" y="323.37" width="3.04" height="18.63" fill="#dc2626" opacity="0.62"/>
<rect x="976.85" y="321.29" width="3.04" height="20.71" fill="#dc2626" opacity="0.62"/>
<rect x="981.77" y="317.87" width="3.04" height="24.13" fill="#dc2626" opacity="0.62"/>
<rect x="986.69" y="316.18" width="3.04" height="25.82" fill="#dc2626" opacity="0.62"/>
<rect x="991.60" y="314.87" width="3.04" height="27.13" fill="#dc2626" opacity="0.62"/>
<rect x="996.52" y="312.07" width="3.04" height="29.93" fill="#dc2626" opacity="0.62"/>
<rect x="1001.44" y="312.11" width="3.04" height="29.89" fill="#dc2626" opacity="0.62"/>
<rect x="1006.36" y="313.01" width="3.04" height="28.99" fill="#dc2626" opacity="0.62"/>
<rect x="1011.28" y="317.00" width="3.04" height="25.00" fill="#dc2626" opacity="0.62"/>
<rect x="1016.20" y="315.17" width="3.04" height="26.83" fill="#dc2626" opacity="0.62"/>
<rect x="1021.12" y="309.16" width="3.04" height="32.84" fill="#dc2626" opacity="0.62"/>
<rect x="1026.04" y="309.97" width="3.04" height="32.03" fill="#dc2626" opacity="0.62"/>
<rect x="1030.96" y="313.94" width="3.04" height="28.06" fill="#dc2626" opacity="0.62"/>
<rect x="1035.88" y="311.12" width="3.04" height="30.88" fill="#dc2626" opacity="0.62"/>
<rect x="1040.80" y="306.35" width="3.04" height="35.65" fill="#dc2626" opacity="0.62"/>
<rect x="1045.72" y="303.05" width="3.04" height="38.95" fill="#dc2626" opacity="0.62"/>
<rect x="1050.63" y="308.98" width="3.04" height="33.02" fill="#dc2626" opacity="0.62"/>
<rect x="1055.55" y="312.45" width="3.04" height="29.55" fill="#dc2626" opacity="0.62"/>
<rect x="1060.47" y="317.30" width="3.04" height="24.70" fill="#dc2626" opacity="0.62"/>
<rect x="1065.39" y="322.35" width="3.04" height="19.65" fill="#dc2626" opacity="0.62"/>
<rect x="1070.31" y="331.56" width="3.04" height="10.44" fill="#dc2626" opacity="0.62"/>
<rect x="1075.23" y="337.30" width="3.04" height="4.70" fill="#dc2626" opacity="0.62"/>
<rect x="1080.15" y="342.00" width="3.04" height="1.35" fill="#059669" opacity="0.62"/>
<rect x="1085.07" y="342.00" width="3.04" height="4.41" fill="#059669" opacity="0.62"/>
<rect x="1089.99" y="332.17" width="3.04" height="9.83" fill="#dc2626" opacity="0.62"/>
<rect x="1094.91" y="331.73" width="3.04" height="10.27" fill="#dc2626" opacity="0.62"/>
<rect x="1099.83" y="328.14" width="3.04" height="13.86" fill="#dc2626" opacity="0.62"/>
<rect x="1104.75" y="300.06" width="3.04" height="41.94" fill="#dc2626" opacity="0.62"/>
<rect x="1109.66" y="293.02" width="3.04" height="48.98" fill="#dc2626" opacity="0.62"/>
<rect x="1114.58" y="295.40" width="3.04" height="46.60" fill="#dc2626" opacity="0.62"/>
<rect x="1119.50" y="292.10" width="3.04" height="49.90" fill="#dc2626" opacity="0.62"/>
<rect x="1124.42" y="309.05" width="3.04" height="32.95" fill="#dc2626" opacity="0.62"/>
<rect x="1129.34" y="330.91" width="3.04" height="11.09" fill="#dc2626" opacity="0.62"/>
<rect x="1134.26" y="342.00" width="3.04" height="4.40" fill="#059669" opacity="0.62"/>
<rect x="1139.18" y="342.00" width="3.04" height="13.45" fill="#059669" opacity="0.62"/>
<rect x="1144.10" y="342.00" width="3.04" height="18.65" fill="#059669" opacity="0.62"/>
<rect x="1149.02" y="342.00" width="3.04" height="30.39" fill="#059669" opacity="0.62"/>
<rect x="1153.94" y="342.00" width="3.04" height="43.32" fill="#059669" opacity="0.62"/>
<rect x="1158.86" y="342.00" width="3.04" height="44.21" fill="#059669" opacity="0.62"/>
<rect x="1163.78" y="342.00" width="3.04" height="45.52" fill="#059669" opacity="0.62"/>
<rect x="1168.69" y="342.00" width="3.04" height="42.48" fill="#059669" opacity="0.62"/>
<rect x="1173.61" y="342.00" width="3.04" height="41.84" fill="#059669" opacity="0.62"/>
<rect x="1178.53" y="342.00" width="3.04" height="33.62" fill="#059669" opacity="0.62"/>
<rect x="1183.45" y="342.00" width="3.04" height="27.66" fill="#059669" opacity="0.62"/>
<rect x="1188.37" y="342.00" width="3.04" height="17.90" fill="#059669" opacity="0.62"/>
<rect x="1193.29" y="342.00" width="3.04" height="4.63" fill="#059669" opacity="0.62"/>
<rect x="1198.21" y="333.09" width="3.04" height="8.91" fill="#dc2626" opacity="0.62"/>
<rect x="1203.13" y="329.81" width="3.04" height="12.19" fill="#dc2626" opacity="0.62"/>
<rect x="1208.05" y="317.98" width="3.04" height="24.02" fill="#dc2626" opacity="0.62"/>
<rect x="1212.97" y="306.46" width="3.04" height="35.54" fill="#dc2626" opacity="0.62"/>
<rect x="1217.89" y="310.66" width="3.04" height="31.34" fill="#dc2626" opacity="0.62"/>
<rect x="1222.80" y="313.13" width="3.04" height="28.87" fill="#dc2626" opacity="0.62"/>
<rect x="1227.72" y="308.29" width="3.04" height="33.71" fill="#dc2626" opacity="0.62"/>
<rect x="1232.64" y="312.63" width="3.04" height="29.37" fill="#dc2626" opacity="0.62"/>
<rect x="1237.56" y="329.26" width="3.04" height="12.74" fill="#dc2626" opacity="0.62"/>
<rect x="1242.48" y="342.00" width="3.04" height="3.46" fill="#059669" opacity="0.62"/>
<path d="M88.00,342.00 L92.92,342.44 L97.84,341.04 L102.76,341.19 L107.68,341.56 L112.60,338.41 L117.51,336.87 L122.43,335.21 L127.35,335.05 L132.27,332.70 L137.19,331.35 L142.11,329.71 L147.03,328.48 L151.95,327.24 L156.87,323.17 L161.79,317.82 L166.71,315.69 L171.63,314.34 L176.54,316.09 L181.46,318.95 L186.38,323.13 L191.30,324.15 L196.22,325.26 L201.14,325.24 L206.06,325.67 L210.98,331.63 L215.90,336.01 L220.82,337.35 L225.74,338.25 L230.66,337.90 L235.57,334.38 L240.49,331.06 L245.41,332.68 L250.33,330.00 L255.25,329.74 L260.17,311.81 L265.09,299.21 L270.01,292.92 L274.93,287.76 L279.85,259.84 L284.77,245.07 L289.69,250.88 L294.60,255.19 L299.52,250.76 L304.44,250.89 L309.36,251.70 L314.28,251.82 L319.20,242.42 L324.12,229.60 L329.04,221.97 L333.96,206.87 L338.88,197.15 L343.80,182.23 L348.71,173.57 L353.63,171.25 L358.55,166.20 L363.47,158.55 L368.39,156.34 L373.31,171.88 L378.23,174.21 L383.15,190.77 L388.07,202.20 L392.99,215.88 L397.91,235.39 L402.83,250.99 L407.74,257.94 L412.66,264.87 L417.58,269.12 L422.50,265.32 L427.42,262.60 L432.34,263.88 L437.26,265.35 L442.18,273.52 L447.10,286.75 L452.02,303.23 L456.94,317.04 L461.86,328.28 L466.77,330.24 L471.69,335.69 L476.61,342.94 L481.53,351.76 L486.45,355.94 L491.37,354.25 L496.29,359.59 L501.21,364.34 L506.13,367.34 L511.05,371.73 L515.97,374.14 L520.89,380.89 L525.80,387.79 L530.72,392.44 L535.64,394.09 L540.56,394.79 L545.48,393.50 L550.40,390.80 L555.32,390.06 L560.24,390.84 L565.16,386.60 L570.08,383.53 L575.00,376.47 L579.91,371.77 L584.83,367.76 L589.75,368.05 L594.67,363.58 L599.59,365.07 L604.51,369.16 L609.43,368.48 L614.35,368.33 L619.27,366.76 L624.19,355.81 L629.11,347.84 L634.03,336.68 L638.94,328.45 L643.86,323.51 L648.78,319.30 L653.70,312.41 L658.62,310.74 L663.54,299.95 L668.46,289.35 L673.38,284.23 L678.30,280.63 L683.22,280.27 L688.14,282.38 L693.06,290.28 L697.97,295.87 L702.89,300.85 L707.81,301.69 L712.73,305.16 L717.65,312.60 L722.57,311.84 L727.49,312.12 L732.41,315.23 L737.33,322.17 L742.25,324.89 L747.17,320.99 L752.09,326.69 L757.00,330.53 L761.92,341.85 L766.84,352.14 L771.76,361.73 L776.68,373.22 L781.60,380.63 L786.52,382.91 L791.44,382.47 L796.36,383.31 L801.28,381.33 L806.20,378.84 L811.11,378.01 L816.03,376.52 L820.95,374.24 L825.87,374.37 L830.79,377.51 L835.71,385.41 L840.63,393.34 L845.55,398.68 L850.47,402.77 L855.39,407.16 L860.31,406.90 L865.23,406.20 L870.14,406.44 L875.06,404.43 L879.98,400.02 L884.90,399.47 L889.82,397.58 L894.74,396.35 L899.66,400.00 L904.58,407.92 L909.50,411.70 L914.42,412.84 L919.34,417.23 L924.26,418.96 L929.17,421.74 L934.09,425.47 L939.01,424.29 L943.93,426.76 L948.85,429.69 L953.77,425.68 L958.69,413.89 L963.61,405.86 L968.53,397.05 L973.45,390.03 L978.37,382.77 L983.29,373.32 L988.20,365.18 L993.12,357.08 L998.04,346.80 L1002.96,339.37 L1007.88,333.02 L1012.80,330.76 L1017.72,322.23 L1022.64,308.00 L1027.56,300.81 L1032.48,297.76 L1037.40,287.21 L1042.31,273.54 L1047.23,260.50 L1052.15,258.18 L1057.07,254.25 L1061.99,252.93 L1066.91,253.07 L1071.83,259.67 L1076.75,264.23 L1081.67,270.62 L1086.59,274.79 L1091.51,258.09 L1096.43,255.07 L1101.34,248.02 L1106.26,209.45 L1111.18,190.18 L1116.10,180.90 L1121.02,165.12 L1125.94,173.84 L1130.86,192.92 L1135.78,209.51 L1140.70,221.92 L1145.62,231.79 L1150.54,251.13 L1155.46,274.89 L1160.37,286.83 L1165.29,299.52 L1170.21,307.10 L1175.13,316.93 L1180.05,317.11 L1184.97,318.06 L1189.89,312.77 L1194.81,300.67 L1199.73,284.90 L1204.65,278.57 L1209.57,260.74 L1214.49,240.33 L1219.40,236.69 L1224.32,231.95 L1229.24,218.67 L1234.16,215.68 L1239.08,229.12 L1244.00,246.19" fill="none" stroke="#2563eb" stroke-width="2.1" stroke-linejoin="round" stroke-linecap="round"/>
<path d="M88.00,342.00 L92.92,342.09 L97.84,341.88 L102.76,341.74 L107.68,341.70 L112.60,341.05 L117.51,340.21 L122.43,339.21 L127.35,338.38 L132.27,337.24 L137.19,336.06 L142.11,334.79 L147.03,333.53 L151.95,332.27 L156.87,330.45 L161.79,327.93 L166.71,325.48 L171.63,323.25 L176.54,321.82 L181.46,321.25 L186.38,321.62 L191.30,322.13 L196.22,322.75 L201.14,323.25 L206.06,323.74 L210.98,325.31 L215.90,327.45 L220.82,329.43 L225.74,331.20 L230.66,332.54 L235.57,332.91 L240.49,332.54 L245.41,332.56 L250.33,332.05 L255.25,331.59 L260.17,327.63 L265.09,321.95 L270.01,316.14 L274.93,310.46 L279.85,300.34 L284.77,289.29 L289.69,281.60 L294.60,276.32 L299.52,271.21 L304.44,267.15 L309.36,264.06 L314.28,261.61 L319.20,257.77 L324.12,252.14 L329.04,246.10 L333.96,238.26 L338.88,230.03 L343.80,220.47 L348.71,211.09 L353.63,203.13 L358.55,195.74 L363.47,188.30 L368.39,181.91 L373.31,179.90 L378.23,178.77 L383.15,181.17 L388.07,185.37 L392.99,191.48 L397.91,200.26 L402.83,210.40 L407.74,219.91 L412.66,228.90 L417.58,236.95 L422.50,242.62 L427.42,246.62 L432.34,250.07 L437.26,253.12 L442.18,257.20 L447.10,263.11 L452.02,271.14 L456.94,280.32 L461.86,289.91 L466.77,297.98 L471.69,305.52 L476.61,313.00 L481.53,320.76 L486.45,327.79 L491.37,333.08 L496.29,338.39 L501.21,343.58 L506.13,348.33 L511.05,353.01 L515.97,357.24 L520.89,361.97 L525.80,367.13 L530.72,372.19 L535.64,376.57 L540.56,380.22 L545.48,382.87 L550.40,384.46 L555.32,385.58 L560.24,386.63 L565.16,386.63 L570.08,386.01 L575.00,384.10 L579.91,381.63 L584.83,378.86 L589.75,376.70 L594.67,374.07 L599.59,372.27 L604.51,371.65 L609.43,371.02 L614.35,370.48 L619.27,369.73 L624.19,366.95 L629.11,363.13 L634.03,357.84 L638.94,351.96 L643.86,346.27 L648.78,340.88 L653.70,335.18 L658.62,330.29 L663.54,324.22 L668.46,317.25 L673.38,310.65 L678.30,304.64 L683.22,299.77 L688.14,296.29 L693.06,295.09 L697.97,295.25 L702.89,296.37 L707.81,297.43 L712.73,298.98 L717.65,301.70 L722.57,303.73 L727.49,305.41 L732.41,307.37 L737.33,310.33 L742.25,313.24 L747.17,314.79 L752.09,317.17 L757.00,319.84 L761.92,324.24 L766.84,329.82 L771.76,336.20 L776.68,343.61 L781.60,351.01 L786.52,357.39 L791.44,362.41 L796.36,366.59 L801.28,369.54 L806.20,371.40 L811.11,372.72 L816.03,373.48 L820.95,373.63 L825.87,373.78 L830.79,374.53 L835.71,376.70 L840.63,380.03 L845.55,383.76 L850.47,387.56 L855.39,391.48 L860.31,394.56 L865.23,396.89 L870.14,398.80 L875.06,399.93 L879.98,399.95 L884.90,399.85 L889.82,399.40 L894.74,398.79 L899.66,399.03 L904.58,400.81 L909.50,402.99 L914.42,404.96 L919.34,407.41 L924.26,409.72 L929.17,412.12 L934.09,414.79 L939.01,416.69 L943.93,418.71 L948.85,420.90 L953.77,421.86 L958.69,420.27 L963.61,417.38 L968.53,413.32 L973.45,408.66 L978.37,403.48 L983.29,397.45 L988.20,391.00 L993.12,384.21 L998.04,376.73 L1002.96,369.26 L1007.88,362.01 L1012.80,355.76 L1017.72,349.05 L1022.64,340.84 L1027.56,332.83 L1032.48,325.82 L1037.40,318.10 L1042.31,309.19 L1047.23,299.45 L1052.15,291.19 L1057.07,283.81 L1061.99,277.63 L1066.91,272.72 L1071.83,270.11 L1076.75,268.93 L1081.67,269.27 L1086.59,270.37 L1091.51,267.92 L1096.43,265.35 L1101.34,261.88 L1106.26,251.40 L1111.18,239.15 L1116.10,227.50 L1121.02,215.02 L1125.94,206.79 L1130.86,204.01 L1135.78,205.11 L1140.70,208.48 L1145.62,213.14 L1150.54,220.74 L1155.46,231.57 L1160.37,242.62 L1165.29,254.00 L1170.21,264.62 L1175.13,275.08 L1180.05,283.49 L1184.97,290.40 L1189.89,294.88 L1194.81,296.04 L1199.73,293.81 L1204.65,290.76 L1209.57,284.75 L1214.49,275.87 L1219.40,268.03 L1224.32,260.82 L1229.24,252.39 L1234.16,245.05 L1239.08,241.86 L1244.00,242.73" fill="none" stroke="#f59e0b" stroke-width="2.1" stroke-linejoin="round" stroke-linecap="round"/>
<line x1="88" x2="112" y1="664" y2="664" stroke="#2563eb" stroke-width="4"/>
<text x="118" y="668" font-family="Arial, sans-serif" font-size="12" fill="#374151">MACD</text>
<line x1="218" x2="242" y1="664" y2="664" stroke="#f59e0b" stroke-width="4"/>
<text x="248" y="668" font-family="Arial, sans-serif" font-size="12" fill="#374151">Signal</text>
<line x1="348" x2="372" y1="664" y2="664" stroke="#dc2626" stroke-width="4"/>
<text x="378" y="668" font-family="Arial, sans-serif" font-size="12" fill="#374151">Histogram +</text>
<line x1="478" x2="502" y1="664" y2="664" stroke="#059669" stroke-width="4"/>
<text x="508" y="668" font-family="Arial, sans-serif" font-size="12" fill="#374151">Histogram -</text>
</svg>